HIERARCHY
ROOT Hips
{
	OFFSET 0.000000 0.000000 0.000000
	CHANNELS 6 Xposition Yposition Zposition Zrotation Yrotation Xrotation 
	JOINT LHipJoint
	{
		OFFSET 0.000000 0.000000 0.000000
		CHANNELS 3 Zrotation Yrotation Xrotation
		JOINT LeftUpLeg
		{
			OFFSET 1.363060 -1.794630 0.839290
			CHANNELS 3 Zrotation Yrotation Xrotation
			JOINT LeftLeg
			{
				OFFSET 2.448110 -6.726130 0.000000
				CHANNELS 3 Zrotation Yrotation Xrotation
				JOINT LeftFoot
				{
					OFFSET 2.562200 -7.039590 0.000000
					CHANNELS 3 Zrotation Yrotation Xrotation
					JOINT LeftToeBase
					{
						OFFSET 0.157640 -0.433110 2.322550
						CHANNELS 3 Zrotation Yrotation Xrotation
						End Site
						{
							OFFSET 0.000000 0.000000 0.000000
						}
					}
				}
			}
		}
	}
	JOINT RHipJoint
	{
		OFFSET 0.000000 0.000000 0.000000
		CHANNELS 3 Zrotation Yrotation Xrotation
		JOINT RightUpLeg
		{
			OFFSET -1.305520 -1.794630 0.839290
			CHANNELS 3 Zrotation Yrotation Xrotation
			JOINT RightLeg
			{
				OFFSET -2.542530 -6.985550 0.000000
				CHANNELS 3 Zrotation Yrotation Xrotation
				JOINT RightFoot
				{
					OFFSET -2.568260 -7.056230 0.000000
					CHANNELS 3 Zrotation Yrotation Xrotation
					JOINT RightToeBase
					{
						OFFSET -0.164730 -0.452590 2.363150
						CHANNELS 3 Zrotation Yrotation Xrotation
						End Site
						{
							OFFSET 0.000000 0.000000 0.000000
						}
					}
				}
			}
		}
	}
	JOINT LowerBack
	{
		OFFSET 0.000000 0.000000 0.000000
		CHANNELS 3 Zrotation Yrotation Xrotation
		JOINT Spine
		{
			OFFSET 0.028270 2.035590 -0.193380
			CHANNELS 3 Zrotation Yrotation Xrotation
			JOINT Spine1
			{
				OFFSET 0.056720 2.048850 -0.042750
				CHANNELS 3 Zrotation Yrotation Xrotation
				JOINT Neck
				{
					OFFSET 0.000000 0.000000 0.000000
					CHANNELS 3 Zrotation Yrotation Xrotation
					JOINT Neck1
					{
						OFFSET -0.054170 1.746240 0.172020
						CHANNELS 3 Zrotation Yrotation Xrotation
						JOINT Head
						{
							OFFSET 0.104070 1.761360 -0.123970
							CHANNELS 3 Zrotation Yrotation Xrotation
							End Site
							{
								OFFSET 0.000000 0.000000 0.000000
							}
						}
					}
				}
				JOINT LeftShoulder
				{
					OFFSET 0.000000 0.000000 0.000000
					CHANNELS 3 Zrotation Yrotation Xrotation
					JOINT LeftArm
					{
						OFFSET 3.362410 1.200890 -0.311210
						CHANNELS 3 Zrotation Yrotation Xrotation
						JOINT LeftForeArm
						{
							OFFSET 4.983000 -0.000000 -0.000000
							CHANNELS 3 Zrotation Yrotation Xrotation
							JOINT LeftHand
							{
								OFFSET 3.483560 -0.000000 -0.000000
								CHANNELS 3 Zrotation Yrotation Xrotation
								JOINT LeftFingerBase
								{
									OFFSET 0.000000 0.000000 0.000000
									CHANNELS 3 Zrotation Yrotation Xrotation
									JOINT LeftHandIndex1
									{
										OFFSET 0.715260 -0.000000 -0.000000
										CHANNELS 3 Zrotation Yrotation Xrotation
										End Site
										{
											OFFSET 0.000000 0.000000 0.000000
										}
									}
								}
								JOINT LThumb
								{
									OFFSET 0.000000 0.000000 0.000000
									CHANNELS 3 Zrotation Yrotation Xrotation
									End Site
									{
										OFFSET 0.000000 0.000000 0.000000
									}
								}
							}
						}
					}
				}
				JOINT RightShoulder
				{
					OFFSET 0.000000 0.000000 0.000000
					CHANNELS 3 Zrotation Yrotation Xrotation
					JOINT RightArm
					{
						OFFSET -3.136600 1.374050 -0.404650
						CHANNELS 3 Zrotation Yrotation Xrotation
						JOINT RightForeArm
						{
							OFFSET -5.241900 -0.000000 -0.000000
							CHANNELS 3 Zrotation Yrotation Xrotation
							JOINT RightHand
							{
								OFFSET -3.444170 -0.000000 -0.000000
								CHANNELS 3 Zrotation Yrotation Xrotation
								JOINT RightFingerBase
								{
									OFFSET 0.000000 0.000000 0.000000
									CHANNELS 3 Zrotation Yrotation Xrotation
									JOINT RightHandIndex1
									{
										OFFSET -0.622530 -0.000000 -0.000000
										CHANNELS 3 Zrotation Yrotation Xrotation
										End Site
										{
											OFFSET 0.000000 0.000000 0.000000
										}
									}
								}
								JOINT RThumb
								{
									OFFSET 0.000000 0.000000 0.000000
									CHANNELS 3 Zrotation Yrotation Xrotation
									End Site
									{
										OFFSET 0.000000 0.000000 0.000000
									}
								}
							}
						}
					}
				}
			}
		}
	}
}
MOTION
Frames: 7
Frame Time: 0.008333
16.470316 17.385733 7.464145 178.695255 56.306273 175.676183 -1.922119 1.092987 2.091280 -28.901006 2.261512 -9.317207 1.804536 10.757676 33.668206 1.896668 -4.484798 -12.314192 0.155500 -2.541000 -7.003300 -2.375711 -2.185586 -0.125775 1.855253 7.386056 -22.109299 0.219293 -7.303636 18.668680 6.503535 -24.294927 1.582259 -6.276900 -14.691400 46.083100 13.670620 2.338899 4.903575 1.395894 3.947140 -4.028109 3.851313 3.249376 -8.265992 11.009492 9.843347 1.114150 2.502974 12.636332 2.919003 -8.868800 5.417400 -2.322000 -0.290757 -11.108486 6.700876 12.683694 0.091647 -8.197303 22.880239 -27.538088 -13.008353 -4.077252 -2.961754 -5.199687 47.275922 3.802261 8.773900 -7.125000 0.000000 0.000000 21.856900 40.168400 -2.755800 9.213551 12.213074 0.282747 20.471016 34.902548 45.632405 -39.652745 38.744160 -18.908958 -1.769864 1.243881 -26.269245 -10.369268 21.038793 -3.088500 7.125000 0.000000 0.000000 12.248500 -10.898700 9.947700 
16.492809 17.387890 7.440831 178.218910 55.747013 175.350194 -1.939501 1.088740 2.111896 -29.213506 2.006278 -8.976545 1.736491 10.645094 33.339096 1.923224 -4.703482 -12.169453 0.138300 -2.397100 -6.604500 -2.364867 -2.135911 -0.190265 1.892638 7.879596 -22.523481 0.212754 -7.318255 18.569584 6.443715 -24.471263 2.805596 -6.272400 -14.687200 46.065300 13.518744 2.404750 4.911670 1.400300 4.025452 -4.015781 3.957270 3.297037 -8.201724 11.112631 9.914973 1.006055 2.317566 12.802077 2.829274 -9.032200 5.472100 -2.297600 -0.246216 -11.122170 6.715567 12.728547 0.007867 -8.366127 22.873215 -27.536695 -13.013783 -4.045619 -2.951291 -5.063007 47.042942 3.648281 8.513400 -7.125000 0.000000 0.000000 21.558600 39.916300 -2.856000 9.229678 12.245332 0.260690 20.228632 34.903193 45.361663 -39.617086 38.801782 -18.929447 -1.762365 1.256798 -26.390774 -10.296420 21.131238 -3.082100 7.125000 0.000000 0.000000 12.284300 -10.823600 9.997500 
16.516226 17.388301 7.420085 177.938504 55.100082 175.144086 -1.959526 1.093435 2.138618 -29.400551 1.731657 -8.552632 1.669764 10.524476 32.992747 1.967275 -5.044167 -11.937621 0.107500 -2.113900 -5.820500 -2.347798 -2.096420 -0.237311 2.010513 8.386825 -22.813266 0.227030 -7.315806 18.463264 6.423959 -24.655492 3.470135 -6.125900 -14.549200 45.484800 13.484018 2.396076 4.977125 1.415579 4.034936 -4.007766 4.072664 3.313637 -8.208828 11.199385 9.998065 1.000108 2.113645 12.995405 2.734272 -9.199200 5.543200 -2.297000 -0.202360 -11.141550 6.732396 12.790121 -0.013352 -8.373388 22.822354 -27.494883 -12.987416 -4.097363 -2.972510 -5.247510 47.222826 3.714549 8.667700 -7.125000 0.000000 0.000000 21.801300 40.047500 -2.817000 9.239238 12.275948 0.233987 20.035022 34.946878 45.225594 -39.606470 38.851872 -18.949452 -1.756116 1.271019 -26.682683 -10.146813 21.180273 -3.043800 7.125000 0.000000 0.000000 12.366200 -10.802500 10.073000 
16.538821 17.388198 7.398003 177.499373 54.413473 174.761915 -1.968655 1.106940 2.178195 -29.689360 1.461729 -8.095328 1.630935 10.413776 32.693641 2.092993 -5.851270 -11.623605 0.037400 -1.249000 -3.434200 -2.335803 -2.070983 -0.271566 2.151080 8.265171 -23.234270 0.231773 -7.286685 18.272918 6.296154 -24.639578 4.719482 -5.925400 -14.355700 44.681700 13.375337 2.309523 5.154165 1.426474 3.961216 -4.024203 4.173179 3.293042 -8.440277 11.301297 10.106305 1.306781 1.897344 13.229865 2.623086 -9.380900 5.640000 -2.369800 -0.200576 -11.162784 6.757088 12.789936 0.128062 -8.149403 22.837385 -27.490155 -13.020394 -4.163096 -3.003145 -5.271767 47.597646 4.052768 9.243800 -7.125000 0.000000 0.000000 22.338900 40.633300 -2.551200 9.236962 12.285380 0.221689 20.120908 35.042474 45.533212 -39.696317 38.866611 -18.987745 -1.763429 1.263809 -26.786835 -10.108394 21.285280 -3.044800 7.125000 0.000000 0.000000 12.394400 -10.700800 10.123500 
16.560697 17.391587 7.377770 177.306340 53.727211 174.584109 -1.979613 1.119170 2.213278 -29.797495 1.292938 -7.705720 1.596499 10.314465 32.426993 2.193819 -6.544794 -11.300379 0.006100 -0.504900 -1.387300 -2.311207 -2.044503 -0.297815 2.403517 8.348183 -23.539791 0.256950 -7.248416 18.092261 6.153624 -24.502393 5.625509 -5.885700 -14.316600 44.521200 13.396515 2.258243 5.327920 1.430100 3.942256 -4.032516 4.179809 3.284494 -8.586406 11.387036 10.260305 1.424776 1.794140 13.489777 2.541724 -9.464200 5.748400 -2.377400 -0.184811 -11.193003 6.778661 12.846601 0.194687 -8.102062 22.865095 -27.499448 -13.042431 -4.162428 -3.017597 -5.264180 47.597453 4.117964 9.344100 -7.125000 0.000000 0.000000 22.370500 40.752600 -2.485200 9.225769 12.301997 0.205341 20.162624 35.117394 45.556929 -39.715999 38.857476 -18.999341 -1.780123 1.267760 -26.683436 -9.906426 21.328154 -2.975500 7.125000 0.000000 0.000000 12.534600 -10.685300 10.247900 
16.586065 17.387890 7.359591 177.224951 53.063731 174.542132 -1.999404 1.126620 2.242753 -29.820677 1.225049 -7.388816 1.533146 10.220593 32.154687 2.166643 -6.344804 -11.394859 0.049900 -1.441800 -3.965300 -2.288328 -2.009773 -0.325218 2.711964 8.628817 -23.818434 0.290500 -7.227021 17.984932 6.004015 -24.238709 6.152125 -5.896300 -14.327100 44.564000 13.504852 2.241545 5.450685 1.439545 3.969881 -4.031353 4.197733 3.297604 -8.627207 11.430749 10.346049 1.371333 1.633962 13.674827 2.466980 -9.570100 5.822900 -2.349500 -0.158999 -11.211840 6.786934 12.880723 0.213020 -8.035691 22.847867 -27.484765 -13.031617 -4.147098 -2.991299 -5.420625 47.553860 3.763271 8.856400 -7.125000 0.000000 0.000000 22.176400 40.184100 -2.791900 9.234176 12.325660 0.185367 20.129095 35.171064 45.267586 -39.718772 38.864394 -19.024889 -1.792235 1.285309 -26.519340 -9.656834 21.249781 -2.873900 7.125000 0.000000 0.000000 12.700800 -10.801800 10.360000 
16.610715 17.382652 7.340385 176.745731 52.391660 174.221730 -2.011474 1.128018 2.270331 -30.133061 1.048829 -7.068336 1.472743 10.126227 31.879397 2.168895 -6.279611 -11.575109 0.109000 -2.129100 -5.862500 -2.283652 -1.977630 -0.360374 2.849751 8.545284 -24.274787 0.289417 -7.223994 17.878867 5.764817 -23.950583 7.479210 -5.636700 -14.066800 43.505700 13.378358 2.182153 5.561534 1.451150 3.912632 -4.039817 4.337195 3.290803 -8.768567 11.370095 10.437144 1.592292 1.390285 13.896894 2.330436 -9.718200 5.913300 -2.438700 -0.192292 -11.221430 6.803228 12.769076 0.347253 -7.849474 22.846403 -27.479326 -13.058191 -4.131839 -2.973408 -5.470241 47.508318 3.516176 8.518700 -7.125000 0.000000 0.000000 22.025300 39.794900 -2.995400 9.233066 12.316200 0.166479 20.223515 35.288264 45.262700 -39.863379 38.924038 -19.134219 -1.807100 1.306088 -26.467109 -9.359730 21.160614 -2.755700 7.125000 0.000000 0.000000 12.896200 -10.938400 10.491000 
